<?xml version="1.0" encoding="UTF-8"?>
<svg width="197px" height="26px" viewBox="0 0 197 26" version="1.1" xmlns="http://www.w3.org/2000/svg" xmlns:xlink="http://www.w3.org/1999/xlink">
    <!-- Generator: Sketch 50.2 (55047) - http://www.bohemiancoding.com/sketch -->
    <title>Artboard</title>
    <desc>Created with Sketch.</desc>
    <defs></defs>
    <g id="Artboard" stroke="none" stroke-width="1" fill="none" fill-rule="evenodd">
        <g id="nara-eagle-logo-branding" transform="translate(2.000000, 2.000000)" fill="#212121" fill-rule="nonzero">
            <path d="M22.8685214,18.2054958 C22.5614364,18.3466866 22.1263993,18.3290378 21.9302061,18.2231446 C21.9899171,18.2760912 21.9984472,18.3731599 22.0410979,18.4349309 C22.3396528,18.3996332 22.7661597,18.4702286 22.8685214,18.2054958 Z M20.753047,17.4642438 C20.9577703,17.4465949 21.0174813,17.2701064 21.0942525,17.1112666 C20.7786374,17.2612819 20.4289017,17.1465644 20.1900578,16.9965491 C20.2412387,17.3583506 20.5568538,17.2701064 20.8639388,17.3054041 C20.8554086,17.3936484 20.7701073,17.3848239 20.753047,17.4642438 Z M14.9013718,5.94836468 C15.1658061,4.85413555 15.5411322,4.47468513 15.7799761,4.18347899 C16.0955912,3.80402857 16.2917844,3.58341786 16.6073995,3.30986058 C16.6756407,3.24808958 16.8888941,3.22161629 16.8291832,3.07160101 C15.9420487,3.45987586 15.2425773,4.61587599 14.9099019,5.51596769 C14.7734197,5.7983494 14.6881183,6.17779982 14.6028169,6.54842581 C14.5175155,6.92787624 14.3639731,7.38674651 14.5260457,7.75737251 C14.7222389,7.58088394 14.6369375,7.23673123 14.6795882,6.98082281 C14.7478293,6.6366701 14.8416608,6.28369296 14.9013718,5.94836468 Z M20.2668291,16.1847017 C20.3436003,16.4053124 20.8298182,16.6082742 20.8724689,16.6170987 C20.6848059,16.4494345 20.5142031,16.2729459 20.2668291,16.1847017 Z M20.94071,17.4642438 C20.94071,17.6319079 21.0345416,17.7025034 21.0942525,17.8172209 C21.4269279,17.9054652 21.9131458,17.8789919 21.8875554,17.5436636 C21.6487115,17.7907476 21.1283731,17.7554499 20.94071,17.4642438 Z M12.5811741,9.63697576 C12.4617521,10.6164873 12.7858974,11.8960294 13.067392,12.5225639 C13.1868139,12.7784723 13.2891756,13.1932204 13.5536099,13.184396 C13.4000674,12.5313883 12.7858974,11.5607012 12.7261864,10.4929453 C12.6494152,9.20457877 13.1526934,8.16329622 14.4578046,8.42802907 C14.671058,8.56921992 14.7563594,8.84277721 14.9440225,9.01044135 C15.0890348,8.74570849 15.2511075,8.4986245 15.3619993,8.1897695 C14.1507196,7.39557094 12.7432467,8.27801379 12.5811741,9.63697576 Z M19.772081,15.7523047 C19.8062016,15.8758467 19.9512139,16.0876329 20.0706359,15.9905642 C19.9341537,15.9464421 19.8829728,15.8229001 19.772081,15.7523047 Z M12.393511,3.08924987 C11.5149067,4.28054771 11.1992916,6.44253267 11.3784245,8.46332678 C11.71963,8.34860921 11.5404971,7.74854808 11.531967,7.44851751 C11.4893163,6.38076167 11.6257985,5.4277234 11.8305218,4.60705156 C11.9755342,4.00699042 12.2655589,3.55694457 12.393511,3.08924987 Z M23.1670762,20.7822289 C23.8068366,21.938229 26.0076124,20.5351449 25.0095862,19.652702 C25.5981658,20.5439693 23.951849,21.3116946 23.1670762,20.7822289 Z M12.8456084,15.0904725 C13.4597783,16.0964574 14.5345758,16.6788697 15.9761693,16.8024117 C16.5220982,16.8465338 16.8633037,16.7935872 17.2215695,16.9965491 C17.3836422,17.0053735 17.3409915,16.8024117 17.5201244,16.8377094 C18.2707766,16.8994804 18.6972835,16.6259231 19.1749713,16.4053124 C18.7399342,16.4494345 18.236656,16.5641521 17.929571,16.3258925 C17.8869204,16.5906254 18.1428245,16.5465032 18.2281259,16.6788697 C17.5542449,16.8818315 17.0339065,16.6259231 16.6073995,16.3700147 C16.4965077,16.4317857 16.6841708,16.5553277 16.573279,16.6082742 C14.8416608,16.4317857 12.7858974,15.9199688 12.8797289,13.9962434 C12.8200179,14.110961 12.8029577,14.2521518 12.7261864,14.3492205 C11.8561123,13.7138617 10.551001,12.19606 10.3889284,10.6076629 C10.243916,9.14280777 11.1054601,8.58686878 12.3849809,8.73688406 C12.5811741,8.80747949 12.5641138,8.9663192 12.6494152,9.0898612 C12.7261864,8.92219706 12.8370782,8.78983064 12.8711988,8.58686878 C11.4893163,7.99563208 10.0989037,9.16928106 10.1244941,10.4929453 C10.1500845,12.4960906 11.7366903,13.7932816 12.6835357,14.7021977 C12.6152946,14.9051595 12.6238247,15.0198771 12.6067645,15.2051901 C12.7261864,15.3110832 12.7176563,15.0816481 12.8456084,15.0904725 Z M19.2090919,16.4141368 C19.3882248,16.3964879 19.5502974,16.3523658 19.5502974,16.1405795 C19.277333,16.1758772 19.1237905,16.0876329 18.910537,16.0611597 C18.9020069,16.2994192 19.217622,16.2111749 19.3626344,16.2994192 C19.3711645,16.4053124 19.1493809,16.2641215 19.2090919,16.4141368 Z M21.8875554,18.2054958 C21.8975554,18.215681 21.9175554,18.2258661 21.9275554,18.2258661 C21.9175554,18.2258661 21.8975554,18.215681 21.8875554,18.2054958 Z M26.7070838,16.025862 C26.7070838,15.9287932 26.8520962,15.9729154 26.8606263,15.8670222 C26.8094455,15.8140757 26.6814934,15.8140757 26.6388427,15.8670222 C26.6217824,15.9552665 26.6388427,16.0170375 26.7070838,16.025862 Z M31.3048286,20.8969464 C31.3389492,21.0557862 31.4669012,21.1175572 31.6033835,21.1705037 C31.5607328,21.0204884 31.39013,21.0028396 31.3048286,20.8969464 Z M32.2431439,16.2994192 C32.4052165,16.3611902 32.4734576,16.1317551 32.5416987,16.2199994 C32.251674,16.4494345 31.9616493,16.7053429 31.6033835,16.8818315 C31.2365875,17.0583201 30.8015504,17.1112666 30.5115257,17.3848239 C30.9039121,17.3583506 31.3048286,17.1289155 31.6801547,16.9171292 C32.0384205,16.7141674 32.4478672,16.5200299 32.7378919,16.2905948 C32.8743741,16.1758772 32.9426152,15.9905642 33.113218,15.9376177 C33.6762072,15.778778 34.1112443,16.1141062 34.5036306,16.3258925 C34.2562566,16.0082131 33.6164962,15.6640604 33.0705673,15.778778 C32.9511454,15.8052512 32.8573139,15.9552665 32.7293618,16.0170375 C32.5416987,16.1052818 32.191963,16.0170375 32.2431439,16.2994192 Z M23.6959448,18.7173126 C23.5424023,18.9202745 23.0817749,18.8320302 22.9026419,18.7173126 C22.8173406,18.8320302 23.0220639,18.91145 22.9794132,19.1055875 C23.3120886,19.1055875 23.7983065,19.0438165 23.6959448,18.7173126 Z M32.2857946,15.7876024 C32.1578425,15.778778 31.9787096,15.8140757 31.9104685,15.7523047 C31.9616493,15.6993581 31.9104685,15.6199382 31.9872397,15.5228695 C32.0128301,15.4346252 32.0043,15.3552054 31.9872397,15.2934344 C31.8166369,14.9845794 31.6545643,14.8610374 31.3474793,14.6669 C30.9465628,14.419816 30.6394778,14.296274 29.9570667,14.358045 C28.5666541,14.4727625 26.5876619,14.6845488 25.5896356,15.4522741 C24.932815,15.9552665 24.6683807,16.7053429 24.3101148,17.2083354 C22.6126172,16.1052818 20.019455,15.037526 18.8081753,13.43148 C18.1854752,12.6108081 17.6566066,11.3665637 18.1257642,10.0781972 C18.2537163,9.96347962 18.3048972,9.76934219 18.4243191,9.64580019 C18.4413794,9.46931162 18.3731383,9.45166277 18.4243191,9.3369452 C19.0470192,8.73688406 19.5161769,7.97798322 20.386251,7.62500608 C20.6421552,7.88091451 21.1369032,7.80149465 21.4781088,7.54558623 C22.1775801,7.02494495 23.0135337,5.45419669 22.5955569,4.4040897 C22.535846,4.20995228 22.3311226,3.69813543 21.8107842,3.33633386 C21.7510732,3.30103615 21.7169527,3.27456286 21.6828321,3.26573844 C21.5975307,3.22161629 21.495169,3.17749415 21.4013375,3.14219644 C21.4610485,3.20396744 21.5378197,3.26573844 21.6060608,3.31868501 C21.6743019,3.37163158 21.614591,3.31868501 21.6231211,3.32750944 C21.6316513,3.33633386 21.6401814,3.34515829 21.6572417,3.34515829 C21.802254,3.45105143 22.2202308,3.77755529 22.416424,4.30702099 C22.5273158,4.7747157 22.5529063,5.41007455 22.2970021,5.71010511 C22.2031706,5.31300583 22.1861103,5.11004398 22.0240376,4.67764699 C21.8704952,4.23642556 21.6913622,3.97169271 21.5036992,3.72460871 C20.7445168,2.71862387 18.5693315,3.12454758 17.8527998,3.83932628 C18.8081753,3.46870029 20.0535756,3.02747887 20.9833607,3.565769 C21.4525184,3.83932628 21.7766636,4.56292942 21.8107842,5.16299055 C21.8704952,6.23957082 21.0942525,6.83963195 20.3436003,7.2279068 C20.4203716,7.07789152 20.3521305,6.92787624 20.3436003,6.7602121 C20.1474071,6.5748991 19.6611892,6.56607467 19.3626344,6.64549453 C18.603452,6.83080752 18.0831135,7.68677708 17.8527998,8.28683821 C17.8954505,8.41038021 18.1854752,8.48980007 18.1172341,8.59569321 C18.0404629,8.52509778 17.8442697,8.56921992 17.6992573,8.5603955 C17.0594969,8.94867035 17.4433531,9.79581548 17.3239312,10.590014 C17.3068709,10.713556 17.2130394,10.8018003 17.2130394,10.898869 C17.2130394,11.084182 17.3836422,11.2606706 17.3239312,11.4018615 C17.4774737,11.4901057 17.6054258,11.6048233 17.7760286,11.6754187 C18.1172341,12.6814036 18.4840301,13.5814953 19.1323206,14.2080297 C20.5653839,15.3199077 22.7405693,16.4494345 24.4807176,17.4465949 C24.8048629,17.6319079 25.1375383,17.9672362 25.4616836,18.0731293 C25.9308412,18.2319691 26.1270344,17.9319385 26.3999988,17.7995721 C26.6900235,17.9937095 27.0994702,18.2672668 27.5259771,18.1878469 C27.0824099,18.0731293 26.4597098,17.9937095 26.5450112,17.4465949 C26.3317577,17.4554194 26.1867454,17.7554499 25.9393713,17.7554499 C25.7090576,17.7554499 25.4787438,17.5524881 25.487274,17.3230529 C25.5043343,16.8024117 26.2635166,16.9612514 26.5023605,16.6612208 C26.3573481,16.6965185 26.2038056,16.7141674 26.0161426,16.6965185 C25.9137809,16.6170987 25.9734919,16.3788391 25.9052508,16.2641215 C25.6237562,16.2905948 25.427563,16.2376482 25.3763822,16.025862 C25.4702137,15.7434802 25.6493466,15.5581672 25.9393713,15.4787474 C26.0929138,15.593465 26.1782152,15.778778 26.3146974,15.9111444 C26.4426495,15.840549 26.3146974,15.7081825 26.348818,15.5228695 C26.3146974,15.4258008 26.0758536,15.5493428 26.1185042,15.3640298 C26.8265058,14.7816175 28.7884377,14.5168847 30.1447297,14.4286404 C31.0318642,14.3756938 31.6033835,14.9051595 31.8422273,15.4787474 C30.9721532,14.975755 29.5817406,15.0198771 28.4898828,15.1257703 C27.9354238,15.1787168 27.4406758,15.1345947 27.0568195,15.3640298 C27.5259771,15.3375565 28.5069431,15.3905031 28.6775459,15.3993275 C29.1296432,15.408152 29.4026077,15.3816787 29.7694036,15.4787474 L29.8035242,15.4787474 C30.0253078,15.9905642 30.528586,16.2023505 30.7844901,16.6876941 C30.221501,17.4024728 28.7799075,17.4201216 28.7116664,18.5231752 C29.1552336,17.5877858 30.3835736,17.4642438 30.9721532,16.6876941 C31.3048286,16.4317857 31.7398657,16.2817704 31.9531192,15.9111444 L32.2175535,15.9111444 C32.2175535,15.9729154 32.4393371,15.9729154 32.4393371,15.9111444 L32.4734576,15.9111444 C32.558759,15.9199688 32.6099398,15.90232 32.61847,15.8317245 C32.5843494,15.7611291 32.4137466,15.8052512 32.2857946,15.7876024 Z M30.77596,16.2641215 C30.4603449,16.1935261 30.3835736,15.8670222 30.1703202,15.6817092 C30.5541764,15.531694 30.9039121,15.8670222 30.77596,16.2641215 Z M24.5233683,17.1906865 L24.6769108,16.8377094 C24.8389834,16.5641521 25.0778273,16.3700147 25.2057794,16.0611597 C25.3507918,16.2376482 25.4702137,16.4406101 25.8455398,16.3700147 C25.982022,16.9877246 25.4446233,17.1200911 24.8645739,17.1112666 C24.873104,17.4289461 25.180189,17.3142285 25.427563,17.3054041 C25.3849123,17.4995415 25.5128644,17.5260148 25.5043343,17.6936789 C25.794359,17.8701675 26.0502631,17.7995721 26.2976372,17.6583812 C25.8028891,18.3378622 25.0010561,17.5436636 24.5233683,17.2701064 L24.5233683,17.1906865 Z M34.6571731,16.5729765 C35.1945719,17.0847934 34.7595348,18.91145 34.094184,18.6731905 L34.094184,18.6378928 C34.3927388,17.3848239 33.3520619,17.6319079 32.3199151,17.5877858 C31.7398657,17.5613125 31.0318642,17.4907171 30.588297,17.5524881 C30.2129708,17.6054346 29.5732104,17.7730988 29.607331,18.1349003 C30.0508982,18.2407935 30.4944654,17.8878164 31.0745149,17.8613431 C31.7910465,17.8348698 32.7293618,17.9760606 32.7293618,17.9760606 C33.1388084,18.0466561 33.5482551,18.1084271 33.974762,18.1701981 C34.094184,18.2319691 33.9406415,18.2672668 33.8638702,18.2849156 C33.787099,18.3025645 32.9511454,18.1878469 32.1322521,18.0643049 C31.6630944,17.9848851 30.9124422,17.9319385 30.468875,18.0907782 C30.1703202,18.1966713 30.0338379,18.4172821 29.7523434,18.3643355 C29.5646803,18.3290378 29.5049693,18.1172515 29.3343666,18.0907782 C29.1211131,18.6467172 29.7096927,18.7879081 30.0167777,19.0261676 C30.6394778,19.5115112 30.9892135,20.4733739 31.637504,20.8616487 C32.2687343,19.9968547 33.3435318,19.5821066 34.1197744,18.8761523 C34.1709552,18.9379233 34.3159676,18.91145 34.4183293,18.91145 C34.896017,18.4967019 35.322524,16.8641827 34.6571731,16.5729765 Z M27.0482894,20.0409769 C27.2871333,20.0939235 27.2359524,20.4469006 27.3894949,20.5880915 C27.6539292,20.1821677 28.3107499,20.6939846 28.6348952,20.5880915 C28.2425088,20.4645495 27.8927731,20.2968853 27.4321456,20.2351143 C27.329784,20.1645189 27.3894949,19.9086105 27.210362,19.9262593 C27.2615428,20.0762746 27.0312291,19.9350837 27.0482894,20.0409769 Z M29.1552336,20.5880915 C29.1040528,20.4469006 28.9249199,20.4380762 28.8140281,20.3498319 C28.8566788,20.5086716 29.0272816,20.517496 29.1552336,20.5880915 Z M29.0016911,20.2351143 C29.0102213,20.1203967 28.993161,20.0409769 28.9249199,19.9968547 C28.8993295,20.0939235 28.8396185,20.2439387 29.0016911,20.2351143 Z M28.2936896,19.4938623 C28.5751842,19.5026868 28.8907993,19.6703509 29.0102213,19.7321219 C28.9590405,19.4762135 28.5666541,19.3791448 28.2936896,19.4938623 Z M8.85350342,10.6076629 C9.49326383,10.2282125 8.75967189,9.44283834 8.51229787,8.77218178 C8.08579093,7.5985328 7.95783885,5.91306697 8.29051426,4.8364867 C7.45456067,6.59254796 8.10285121,9.16045663 8.85350342,10.6076629 Z M30.8527313,21.9117557 C30.6565381,21.7617404 30.4944654,21.5852519 30.2470914,21.4793587 C30.4006339,21.6470229 30.6309476,21.938229 30.8527313,21.9117557 Z M30.4347545,20.7381067 C30.3665133,20.9057709 30.3153325,21.0999083 30.468875,21.2058014 C30.4262243,21.2234503 30.3835736,21.2499236 30.3579832,21.2852213 C30.5029956,21.3469923 30.716249,21.6646717 30.8442011,21.4793587 C30.5371161,21.38229 30.5456463,20.949893 30.4347545,20.7381067 Z M28.6690157,20.7822289 C28.7372568,20.9145953 28.8993295,21.1263816 28.8566788,21.2499236 C28.3875212,21.320519 27.7307005,21.3558167 27.5345073,21.0204884 C27.210362,20.9940152 26.6388427,21.1263816 26.3317577,20.9410686 C26.2123358,21.0646106 26.0332029,21.1175572 25.9564316,21.2940457 C26.1185042,21.3646412 26.2549865,21.1175572 26.4426495,21.0999083 C26.8094455,21.2146259 27.2786031,21.3734656 27.5345073,21.1793282 C27.8074717,21.4705343 28.2851595,21.3381679 28.5495938,21.6117251 C28.5325335,21.7793893 28.5666541,21.8941069 28.6348952,21.9735267 C28.6434253,21.9823511 28.6519555,21.9911756 28.6604856,22 C28.6604856,21.9911756 28.6604856,21.9823511 28.6604856,21.9735267 C28.6434253,21.6205496 28.7799075,21.4352366 28.9590405,21.2940457 C29.2575953,21.5499541 29.7011625,21.6029007 30.1276695,21.6470229 C29.7779338,21.444061 29.3258364,21.3381679 28.9590405,21.1440304 C28.8652089,21.0381373 28.7799075,20.7292823 28.6690157,20.7822289 Z M30.9550929,21.9647023 L31.083045,21.9647023 C31.023334,21.8941069 30.9636231,21.8235114 30.8953819,21.752916 C30.9039121,21.8235114 30.9209724,21.8941069 30.9550929,21.9647023 Z M24.6342601,21.752916 C23.9774394,21.9823511 22.6382076,21.938229 22.5273158,21.1263816 C22.4846651,20.8087022 22.6637981,20.1821677 22.8685214,19.961557 C22.9452926,19.8733127 23.3803297,19.5556333 23.6618243,19.4585646 C23.9944997,19.3350226 24.4892477,19.3791448 24.753682,19.4585646 C24.2845244,18.1260759 22.842931,17.5877858 21.6657718,17.1200911 C22.6382076,17.7642744 23.892138,18.1172515 24.4551272,19.1850073 C23.6362339,19.220305 23.1158954,19.5644578 22.6808583,20.0056792 C22.5187857,19.899786 22.2884719,19.8644883 22.1519897,19.7321219 C22.109339,20.1027479 22.3993638,20.1203967 22.6808583,20.1645189 C22.2372911,20.7116334 22.4078939,21.6205496 22.7917501,21.9735267 L25.0692972,21.9735267 C25.3849123,21.8323359 25.6919973,21.6470229 25.9223111,21.3734656 C25.427563,21.2322747 25.060767,21.6117251 24.6342601,21.752916 Z M20.5312634,20.702809 C20.5653839,20.8351754 20.4886127,20.8704732 20.4544921,20.9410686 C19.9000331,21.3116946 19.0470192,21.6029007 18.1940054,21.3293434 C18.2195958,21.2410992 18.236656,21.0557862 18.3475478,20.9410686 C19.1237905,20.7910533 19.584418,20.2968853 20.5739141,20.4733739 C20.5653839,20.3586563 20.5824442,20.2792365 20.6506853,20.2439387 C21.2819156,19.899786 22.0325678,19.6703509 22.5699665,19.2291295 C22.1519897,19.3261982 21.7681335,19.3173738 21.4439882,19.1497096 C21.4013375,19.4585646 21.674302,19.4320913 21.7851938,19.5821066 C21.2051443,19.8291906 20.3521305,20.4469006 19.71237,19.9350837 C19.6867796,20.0939235 19.772081,20.1380456 19.7464906,20.2880609 C19.0470192,20.6763357 17.9210409,21.0557862 17.0339065,20.5969159 C17.0509668,20.455725 17.127738,20.3851296 17.2215695,20.3233586 C18.1598848,20.2792365 18.7484644,19.5468089 19.7038399,19.776244 C19.7635509,19.6791753 19.7806112,19.5468089 19.891503,19.5026868 C20.4630223,19.3791448 20.7701073,18.9820455 21.4695786,18.9996943 C21.4269279,18.7790836 21.6401814,18.8408546 21.6572417,18.6908393 C21.4013375,18.7526103 21.1198429,18.7879081 20.7871675,18.7702592 C20.386251,18.3202133 21.1369032,18.2496179 21.2733854,17.9937095 C20.9321799,18.2496179 20.4544921,18.2584423 19.9170934,18.2319691 C19.9341537,18.6114195 19.5417673,18.5761218 19.3882248,18.7790836 C19.7635509,18.6820149 20.1729975,18.4261065 20.633625,18.5408241 C20.5739141,18.7084882 20.6592154,18.9467478 20.7871675,19.0438165 C20.386251,19.3173738 19.7294303,19.5203356 19.1664412,19.3967936 C19.0640795,19.3791448 19.1920316,19.6085799 19.0896699,19.590931 C18.1854752,19.8821372 17.0850873,20.5086716 15.959109,20.0939235 C15.9164583,20.2174655 16.0785309,20.1203967 16.0358802,20.2527632 C15.6946747,20.3145342 15.5581925,19.9174349 15.7714459,19.7497707 C17.0594969,19.7321219 17.7930888,19.1408852 19.0896699,19.1232363 C19.1323206,18.9820455 19.3626344,18.8408546 19.3199837,18.7349615 C19.1152603,18.8849768 18.6461027,18.9643966 18.3816684,18.8143813 C18.4328492,18.9290989 18.4072588,18.9643966 18.3475478,19.0438165 C17.4007024,19.2909005 16.3941461,19.6615265 15.1828664,19.5115112 C15.037854,19.3350226 14.7563594,19.1850073 14.5772265,19.158534 C14.5942868,19.0438165 14.6028169,18.9202745 14.6881183,18.8849768 C16.1467721,18.9996943 17.068027,18.5672973 18.3816684,18.5319996 C18.8252356,17.8878164 20.0962263,18.0996026 20.6421552,17.5613125 C20.1559373,17.6407324 19.772081,17.9231141 19.2517426,17.7554499 C18.9873083,18.2407935 18.1001738,18.4172821 17.6736669,17.9937095 C17.5542449,18.1613736 17.8442697,18.2231446 17.7504381,18.3466866 C16.2150132,18.6467172 13.7156825,19.220305 13.2294646,17.4907171 C13.2806454,17.4818926 13.2891756,17.4289461 13.3403564,17.4112972 C14.5345758,18.0996026 16.1723625,17.8701675 17.6736669,17.7995721 C17.7845587,17.7730988 17.7333779,17.5789614 17.8613299,17.5613125 C18.3390177,17.5083659 18.6290424,17.2612819 19.217622,17.3230529 C19.4991166,17.1289155 19.8573824,17.0230224 20.2327085,16.9347781 C20.2241784,16.8377094 20.2241784,16.7494651 20.2668291,16.7053429 C19.9512139,16.7141674 19.6611892,16.7053429 19.4735262,16.5906254 C19.5076467,16.8377094 19.8744427,16.7406407 20.0023948,16.8994804 C19.5758878,17.0583201 18.910537,17.2083354 18.4925602,16.9347781 C18.3646081,17.0494956 18.6887534,17.1818621 18.603452,17.2436331 C18.2537163,17.4201216 17.6395463,17.5260148 17.2471599,17.3230529 C17.1703887,17.3583506 17.2300997,17.5436636 17.1362681,17.5613125 C15.1231554,17.7466255 12.760307,17.7907476 12.5385234,15.655236 C12.3679206,15.6111138 12.5385234,15.9199688 12.4276316,15.9287932 C10.8836764,15.346381 9.61268577,14.3403961 8.88762398,12.8931899 C8.81085273,12.7343501 8.75114176,12.504915 8.69996092,12.2666554 C8.64878009,12.0460447 8.64878009,11.701892 8.51229787,11.6842432 C8.40140607,12.566686 8.63171981,13.3255869 9.11793772,13.9079991 C9.21176925,14.0227167 9.51885424,14.358045 9.57003508,14.4109915 C10.3462777,15.2493122 11.5490273,15.8140757 12.4361617,16.3170681 C12.3338,16.7847628 12.640885,17.0053735 12.6238247,17.2524575 C11.1054601,17.0759689 9.2885405,16.4494345 8.29051426,15.4963962 C7.89812788,15.1169458 7.74458538,14.5786557 7.68487441,13.9344724 C7.67634427,13.9785946 7.67634427,14.0227167 7.60810316,14.0138923 C7.48015108,13.9079991 7.15600581,13.6873884 7.07923456,13.6256174 C6.45653443,13.1049761 5.76559319,12.257831 5.23672459,11.3224416 C4.57137377,10.157617 3.44539545,7.75737251 4.93816974,6.88375409 C4.98935057,8.88689935 5.81677403,10.5458919 6.63566735,11.8695562 C6.96834276,12.4078463 7.30954831,13.0167319 7.8810676,13.2373426 C7.88959774,13.1138006 7.96636899,13.0696784 7.95783885,12.9284876 C6.11532888,11.1283042 4.03397503,6.34546396 5.99590694,3.26573844 C6.81480026,1.97737188 8.21374301,1.18317333 10.0647831,1.50967718 C10.4059887,1.54497489 10.2524462,1.62439475 10.1756749,1.78323446 C9.86858993,2.34799788 9.57003508,2.93041016 9.42502272,3.65401329 C9.21176925,3.83932628 8.91321439,3.936395 8.78526231,4.20112785 C9.00704592,4.14818128 9.16911855,3.85697514 9.42502272,3.96286828 C9.17764869,5.56891426 9.25441994,7.52793737 9.57856521,8.94867035 C9.65533646,9.29282306 9.62974605,9.74286891 9.91977076,9.91935747 C9.97948174,9.85758648 10.0477228,9.89288419 10.0733133,9.83993762 C9.65533646,8.34860921 9.19470897,6.39841053 9.5103241,4.42173856 C9.85152965,2.27740245 11.5149067,0.45074577 13.5792003,0.2124862 C14.423684,0.11541749 15.3278787,0.38015034 15.8396871,0.90961604 C15.2169869,1.0508069 14.7051786,1.74793675 14.0654182,1.95972303 C13.6900921,2.08326503 13.3062358,2.06561617 13.007681,2.26857802 C12.7432467,2.45389102 12.6238247,2.7274483 12.4446918,3.04512773 C12.9223796,2.59508188 13.4256578,1.94207417 14.2872018,2.22445588 C14.7478293,1.78323446 15.2766979,1.38613518 15.8140966,1.02433361 L15.8311569,1.01550919 C15.9505789,0.94491376 16.1297118,0.93608933 16.1723625,0.77724962 C15.4984815,0.30073048 14.730769,-0.01694894 13.8009839,0.00069992 C12.4446918,0.0271732 11.4381355,0.58311219 10.7471942,1.16552447 C10.7301339,1.18317333 10.7216038,1.19199775 10.7216038,1.19199775 C10.1671448,1.01550919 9.68092688,0.83019619 9.05822675,0.9272649 C7.28395789,1.21847104 5.8338343,2.79804373 5.25378487,4.28054771 C2.48148978,4.66882256 0.86929355,7.84561679 1.82466909,10.9076935 C1.0996073,11.57835 0.33189481,12.1078157 0.09305093,13.2108693 C0.05893037,13.369709 0.05040023,13.4579533 0.03333995,13.5726708 C-0.2652149,15.9729154 1.50905396,17.9142896 2.65209255,19.1761829 C2.76298435,19.0879386 2.8397556,18.9555722 2.9932981,18.9026256 C3.39421462,19.2556028 3.72689003,19.6791753 4.19604766,19.9527326 C4.23869836,20.1115723 4.33252988,20.270412 4.42636141,20.3410075 C5.62058084,21.258748 8.53788829,21.4352366 10.6021819,21.2410992 C10.7471942,21.6117251 11.2334121,21.8058626 11.591678,21.9558779 L12.6664754,21.9558779 C12.6323549,21.938229 12.5811741,21.9205801 12.5641138,21.8941069 C12.4702823,21.6646717 12.2655589,21.7176183 12.2655589,21.4793587 C13.4683085,21.2675724 14.6625279,21.0469617 15.7287953,20.702809 C16.0102898,21.0381373 16.7353516,20.7204579 17.0083161,20.9410686 C17.0594969,21.2146259 16.6927009,21.2499236 16.4794475,21.3293434 C16.0017597,21.5146564 15.4131801,21.7793893 14.79048,21.9647023 L15.5070116,21.9647023 C15.7885062,21.8852824 16.0614707,21.7882137 16.3344351,21.6823206 C16.5562187,21.5940763 16.7694722,21.3911144 17.0168462,21.3734656 C17.3580518,21.3381679 17.7589683,21.5852519 18.1428245,21.4087633 C18.1769451,21.5852519 18.2793067,21.691145 18.296367,21.876458 C18.2451862,21.9029313 18.1854752,21.938229 18.1342944,21.9647023 L19.2517426,21.9647023 C19.1493809,21.8941069 19.0640795,21.8058626 19.0128987,21.6823206 C19.584418,21.567603 20.079166,21.38229 20.4800825,21.0999083 C21.2307347,21.4793587 21.674302,20.7292823 22.1008089,20.4027785 C21.5975307,20.5616182 21.1027827,21.2146259 20.5312634,20.702809 Z M13.8606949,19.1408852 C14.1080689,19.2379539 14.4151539,19.158534 14.5345758,19.3791448 C14.3810333,19.6703509 14.0142374,19.590931 13.7412729,19.652702 C12.393511,19.9439082 10.5936517,20.2527632 9.63827619,19.343847 C9.3994323,19.1144119 9.2458898,18.7702592 9.15205828,18.4084576 C9.16911855,18.3731599 9.19470897,18.3466866 9.18617883,18.2937401 C9.97948174,18.6202439 10.8410257,18.8320302 11.8219917,18.8761523 C12.2911493,18.8938012 12.8541385,18.7702592 13.3659468,18.8761523 C13.5536099,18.91145 13.6730318,19.0702898 13.8606949,19.1408852 Z M8.21374301,15.8229001 C8.25639371,15.8229001 8.2990444,15.840549 8.32463482,15.8758467 C9.03263633,16.6082742 10.1244941,17.0494956 11.3016532,17.3142285 C11.7025698,17.4024728 12.2314384,17.3936484 12.5811741,17.5524881 C12.7773672,17.6407324 12.9053193,17.8701675 13.1100427,17.9407629 C13.0929824,18.2319691 13.314766,18.2672668 13.3318263,18.5231752 C11.412545,18.6731905 8.24786357,18.5231752 8.17109232,15.9464421 C8.17962246,15.7964268 8.19668274,15.8317245 8.21374301,15.8229001 Z M5.08318209,4.60705156 C5.0405314,5.12769284 4.85286835,6.02778454 4.97229029,6.70726553 C3.02741866,7.89856336 4.3581203,10.9165179 5.27084515,12.2843043 C5.52674931,12.6637547 5.86795486,13.0255563 6.20916041,13.3785334 C6.65272762,13.8285793 7.0877647,14.2521518 7.67634427,14.3933427 C7.64222372,14.6404267 7.48868122,14.7639687 7.45456067,14.975755 C7.32660858,15.7434802 7.83841691,16.2199994 7.98342927,16.6523964 C5.97884666,16.0523352 4.52019294,14.5698313 3.38568448,12.9461364 C2.87387616,12.2048844 2.14881436,11.2165485 1.95262117,10.1046705 C1.49199368,7.37792209 2.62650213,5.06592184 5.08318209,4.60705156 Z M3.83778184,18.7526103 C2.8397556,18.3025645 1.91850062,17.5701369 1.27874021,16.6876941 C0.70722092,15.90232 0.06746051,14.852213 0.2636537,13.4138311 C0.37454551,12.566686 0.90341411,11.4636325 1.96115131,11.6577699 C2.18293492,12.2225333 2.30235686,12.8931899 2.60091172,13.369709 C2.63503227,13.3785334 2.63503227,13.3520601 2.63503227,13.3344113 C2.63503227,13.1402739 2.78004463,13.0961517 2.82269533,12.9461364 C4.093686,14.7639687 5.62058084,16.3082437 7.94930871,17.0406712 C7.9237183,17.2877552 8.00901968,17.4201216 7.98342927,17.6672056 C7.80429635,17.7025034 6.9342222,17.3848239 6.66125776,17.2789308 C5.41585751,16.7935872 4.17898739,16.0523352 3.38568448,15.0198771 C3.06153921,14.605129 2.95064741,14.0668388 2.66915283,13.5373731 C2.29382672,14.04919 2.66915283,14.975755 3.01035838,15.4434497 C3.97426406,16.7671139 6.20063027,17.7289766 7.94930871,18.0113583 C8.09432107,18.6025951 8.47817732,18.9467478 8.96439522,19.1761829 C8.98998564,19.5997555 9.22882953,19.8115417 9.33972133,20.14687 C7.94930871,20.023328 6.39682346,19.6174043 5.27084515,19.2114806 C4.79315738,19.0526409 4.26428877,18.9467478 3.83778184,18.7526103 Z M9.71504743,21.1263816 C8.4525869,21.1881526 7.36072914,20.9322442 6.17503985,20.6233892 C5.39879723,20.4204273 4.42636141,20.0145036 4.21310794,19.4144425 C4.2472285,19.405618 4.2472285,19.3791448 4.28987919,19.3791448 C5.3476164,19.776244 6.58448651,20.1292212 7.90665802,20.3145342 C8.94733495,20.455725 9.84299952,20.517496 10.6192421,20.9410686 C10.423049,21.1440304 10.0306626,21.1175572 9.71504743,21.1263816 Z M12.6579453,21.1705037 C11.8817027,21.2146259 11.2504724,20.9234197 10.7386641,20.4645495 C10.8410257,20.0674502 11.2675327,20.2439387 11.531967,20.2351143 C12.5299932,20.1909922 13.6986222,19.9703815 14.5089854,19.7321219 C14.6881183,19.8556639 14.9440225,20.0498013 15.2255171,20.1203967 C15.3961198,20.1645189 15.6264336,20.0409769 15.711735,20.2792365 C14.9354923,20.6851602 13.7242126,21.1087327 12.6579453,21.1705037 Z M27.0056387,21.752916 C26.9203373,21.8235114 26.8179756,21.9029313 26.6985537,21.9647023 L26.9459277,21.9647023 C27.0482894,21.8411603 27.1250606,21.691145 27.150651,21.4793587 C27.0056387,21.4617099 27.0568195,21.6646717 27.0056387,21.752916 Z M12.7261864,5.93071582 C12.6323549,6.62784567 12.393511,7.57205951 12.5726439,8.30448707 C12.8711988,8.09270079 12.760307,7.54558623 12.760307,7.13966252 C12.760307,6.76903652 12.7688371,6.46018153 12.7858974,6.16897539 C12.8114878,5.77187611 12.9820906,4.75706684 13.1782838,4.17465456 C13.4171277,3.45987586 13.9118757,2.8509903 14.1592497,2.25975359 C13.314766,3.24808958 12.888259,4.73059356 12.7261864,5.93071582 C12.7347166,5.93071582 12.7347166,5.93071582 12.7261864,5.93071582 Z M16.6500502,7.99563208 C16.2150132,7.93386108 15.7714459,8.05740308 15.5240719,8.23389164 C14.8416608,9.08103677 14.6028169,11.0665332 15.1487458,12.2843043 C15.2084568,11.7460142 14.9696129,11.084182 14.9952033,10.4135255 C15.037854,9.24870091 15.5326021,8.22506722 16.7694722,8.34860921 C17.0594969,8.3750825 17.2215695,8.5603955 17.4433531,8.70158635 C17.6224861,8.3133115 17.068027,8.04857865 16.6500502,7.99563208 Z M16.7780023,11.9754493 C16.7097612,11.9666249 16.7097612,12.0019226 16.7524119,12.0283959 C17.6992573,12.2931287 17.9636916,13.6344418 17.9636916,13.6344418 C17.9636916,13.6344418 17.989282,13.6873884 17.9978122,13.6432663 C18.0063423,13.616793 17.9807519,13.4579533 17.9807519,13.4579533 C17.9807519,13.4579533 17.7504381,11.7813119 16.7780023,11.9754493 Z M21.1283731,21.5940763 C21.1454334,21.7352671 21.0942525,21.7970381 21.0174813,21.8323359 C20.9151196,21.876458 20.7871675,21.9205801 20.6506853,21.9647023 L21.6998924,21.9647023 C21.7510732,21.9205801 21.7851938,21.8499847 21.802254,21.752916 C21.5036992,21.7793893 21.367217,21.6381984 21.1283731,21.5940763 Z M16.1979529,12.2048844 C15.9676391,12.0372203 15.7970364,12.5931593 15.6349637,12.751999 C15.5752528,12.6372814 15.5155418,12.504915 15.3705294,12.4784417 C15.4131801,12.6814036 15.5752528,12.751999 15.6349637,12.9461364 C15.7202651,13.5108998 15.8652775,13.9344724 16.1638323,14.2698007 C16.3344351,14.4639381 16.5818091,14.728671 16.8035927,14.7021977 C16.4367968,14.172732 15.9505789,13.7668083 15.7458555,13.0696784 C15.8226268,12.6990524 15.9505789,12.3901974 16.1979529,12.2048844 Z M16.9486051,14.1550831 C16.8035927,14.6316023 17.2045093,14.8786863 17.5115943,15.0110527 C17.2727504,14.7816175 17.0083161,14.5698313 16.9486051,14.1550831 Z M16.6841708,16.025862 C16.7865325,16.0170375 16.7353516,15.840549 16.8718338,15.8670222 C17.6480765,15.8140757 18.0234026,16.0611597 18.6802233,15.7876024 C18.0575231,15.964091 17.6480765,15.4522741 17.2898106,15.28461 C17.3324613,15.5228695 17.5201244,15.6199382 17.6651367,15.7523047 C17.0509668,15.8758467 16.5391584,15.5758161 16.2747241,15.2051901 C16.1297118,15.3993275 16.4367968,15.5581672 16.3514954,15.6728848 C15.2425773,15.1963657 13.809514,14.2786251 14.3213224,12.751999 C13.374477,14.4021671 15.3619993,15.7081825 16.6841708,16.025862 Z M2.78004463,19.8468395 C2.7288638,19.7056486 2.83122546,19.5026868 2.62650213,19.4144425 C2.54973089,19.7938929 2.60091172,20.1292212 2.70327338,20.3851296 C2.92505699,20.9587174 3.27479268,21.4881832 3.68423934,21.9558779 L5.53527945,21.9558779 C4.80168752,21.7440916 4.15339697,21.444061 3.79513114,21.0469617 C3.4112749,20.7204579 2.96770768,20.3851296 2.78004463,19.8468395 Z M20.0365153,2.65685287 C19.5673577,2.75392159 19.1408508,2.89511244 18.6802233,3.00983001 C18.5352109,2.93923458 18.2793067,2.78039487 18.1172341,2.8509903 C18.2537163,2.93041016 18.4669698,2.93041016 18.5352109,3.08042544 C17.9125108,3.46870029 17.1021476,3.82167743 16.573279,4.48350956 C15.9505789,5.27770812 15.3108185,6.38076167 15.2169869,7.44851751 C15.1999266,7.62500608 15.1316855,8.01328093 15.3705294,8.03092979 C15.4473007,6.92787624 15.7032048,6.21309753 16.1211816,5.46302112 C16.9656654,3.94521943 18.3304876,2.90393687 20.5312634,2.93041016 C20.7018661,2.93041016 21.1283731,3.08924987 20.9492402,2.73627273 C20.9492402,2.73627273 20.6848059,2.40976888 20.3094798,1.99502074 C19.7635509,1.35966189 18.9275973,0.87431833 17.7845587,0.78607405 C17.3836422,0.75077633 16.8974243,0.73312748 16.6159297,0.98021147 C18.3219574,0.79489848 19.584418,1.41260846 20.0365153,2.65685287 Z M19.1749713,15.0904725 C18.9617178,14.8433885 18.7996452,14.543358 18.6119821,14.2698007 C18.415789,14.4992358 18.6461027,14.6492511 18.7655246,14.7374954 C18.9873083,14.9051595 18.970248,15.222839 19.1749713,15.0904725 Z M19.2517426,15.2051901 C19.0470192,15.5846405 18.5522712,15.4787474 18.3134273,15.2051901 C18.3646081,15.6728848 19.0128987,15.7434802 19.2517426,15.3993275 C19.3626344,15.4610985 19.4138152,15.593465 19.5502974,15.6375871 C19.524707,15.3993275 19.2517426,15.3552054 19.2517426,15.2051901 Z" id="Shape"></path>
            <path d="M45.6338068,15.2418605 C45.6539773,16.1627907 45.7548295,16.455814 46.0573864,16.5604651 C46.2590909,16.6232558 46.5011364,16.6232558 46.6019886,16.6232558 C46.6625,16.6232558 46.6826704,16.6441861 46.6826704,16.6860465 C46.6826704,16.7488372 46.6221591,16.7697674 46.4809659,16.7697674 C45.8556818,16.7697674 45.4321023,16.727907 45.33125,16.727907 C45.2303977,16.727907 44.7664773,16.7697674 44.2823864,16.7697674 C44.1815341,16.7697674 44.1008523,16.7488372 44.1008523,16.6860465 C44.1008523,16.6441861 44.1411932,16.6232558 44.1815341,16.6232558 C44.2622159,16.6232558 44.4639205,16.6023256 44.6252841,16.5604651 C44.9076705,16.4767442 44.9480114,16.1627907 44.9480114,15.1162791 L44.9681818,8.62790698 C44.9681818,8.18837209 45.0085227,8.0627907 45.0892045,8.0627907 C45.1698864,8.0627907 45.3715909,8.31395349 45.4724432,8.41860465 C45.6338068,8.60697674 47.2676136,10.427907 48.9417614,12.3116279 C50.0309659,13.5046512 51.2210227,14.8860465 51.5639204,15.2627907 L51.4428977,9.50697674 C51.4227273,8.77441861 51.3622159,8.52325581 51.0193182,8.43953488 C50.8176136,8.39767442 50.5755682,8.37674419 50.4747159,8.37674419 C50.3940341,8.37674419 50.3940341,8.33488372 50.3940341,8.29302326 C50.3940341,8.23023256 50.4747159,8.20930233 50.6159091,8.20930233 C51.1,8.20930233 51.6244318,8.25116279 51.7454545,8.25116279 C51.8664773,8.25116279 52.2295454,8.20930233 52.6732954,8.20930233 C52.7943182,8.20930233 52.875,8.23023256 52.875,8.29302326 C52.875,8.33488372 52.8346591,8.37674419 52.7539773,8.37674419 C52.6934659,8.37674419 52.6329545,8.37674419 52.4917614,8.41860465 C52.1286932,8.50232558 52.0883523,8.75348837 52.0883523,9.42325581 L52.0681818,16.0581395 C52.0681818,16.8116279 52.0480114,16.8534884 51.9673295,16.8534884 C51.8866477,16.8534884 51.7454545,16.727907 51.1806818,16.1209302 C51.0596591,16.0162791 49.4863636,14.3418605 48.3366477,13.0441861 C47.0659091,11.6209302 45.8355114,10.1976744 45.4926136,9.8 L45.6338068,15.2418605 Z M58.4017045,8.50232558 C58.5227273,8.1255814 58.5832386,8.0627907 58.64375,8.0627907 C58.7042614,8.0627907 58.7446023,8.1255814 58.8857955,8.46046512 C59.0471591,8.9 60.7616477,13.5674419 61.4272727,15.2837209 C61.8105114,16.2883721 62.1332386,16.4767442 62.3752841,16.5395349 C62.5366477,16.6023256 62.6980114,16.6023256 62.8190341,16.6023256 C62.8795455,16.6023256 62.9198864,16.6232558 62.9198864,16.6651163 C62.9198864,16.727907 62.8190341,16.7488372 62.6980114,16.7488372 C62.5366477,16.7488372 61.7298295,16.7488372 60.9835227,16.727907 C60.7818182,16.7069767 60.6607955,16.7069767 60.6607955,16.6441861 C60.6607955,16.6023256 60.7011364,16.5813954 60.7414773,16.5604651 C60.8019886,16.5395349 60.8625,16.4348837 60.8019886,16.2465116 L59.7934659,13.4627907 C59.7732955,13.4209302 59.753125,13.4 59.6926136,13.4 L57.3528409,13.4 C57.2923295,13.4 57.2721591,13.4418605 57.2519886,13.4837209 L56.6065341,15.4930233 C56.5056818,15.7860465 56.4451705,16.0581395 56.4451705,16.2465116 C56.4451705,16.4767442 56.6670455,16.5813954 56.86875,16.5813954 L56.9696023,16.5813954 C57.0502841,16.5813954 57.0704545,16.6023256 57.0704545,16.6441861 C57.0704545,16.7069767 57.0099432,16.727907 56.9090909,16.727907 C56.646875,16.727907 56.1829545,16.6860465 56.0619318,16.6860465 C55.9409091,16.6860465 55.3357955,16.727907 54.8315341,16.727907 C54.6903409,16.727907 54.6298295,16.7069767 54.6298295,16.6441861 C54.6298295,16.6023256 54.6701705,16.5813954 54.7306818,16.5813954 C54.8113636,16.5813954 54.9525568,16.5604651 55.0534091,16.5604651 C55.5576705,16.4976744 55.7795455,16.0581395 55.9610795,15.4930233 L58.4017045,8.50232558 Z M59.5514205,13.0441861 C59.6119318,13.0441861 59.6119318,13.0023256 59.5917614,12.9604651 L58.5630682,9.90465116 C58.5025568,9.7372093 58.4622159,9.7372093 58.4017045,9.90465116 L57.4335227,12.9604651 C57.4133523,13.0232558 57.4335227,13.0441861 57.4738636,13.0441861 L59.5514205,13.0441861 Z M67.4985795,13.5046512 C67.4985795,14.5930233 67.4985795,15.4930233 67.5590909,15.9534884 C67.5994318,16.2883721 67.6599432,16.5395349 67.9826705,16.5813954 C68.1440341,16.6023256 68.3659091,16.6232558 68.4667614,16.6232558 C68.5272727,16.6232558 68.5474432,16.6651163 68.5474432,16.6860465 C68.5474432,16.7488372 68.4869318,16.7697674 68.3659091,16.7697674 C67.7607955,16.7697674 67.075,16.727907 67.0144886,16.727907 C66.9539773,16.727907 66.2681818,16.7697674 65.9454545,16.7697674 C65.8244318,16.7697674 65.7639205,16.7488372 65.7639205,16.6860465 C65.7639205,16.6441861 65.7840909,16.6232558 65.8446023,16.6232558 C65.9454545,16.6232558 66.0664773,16.6023256 66.1673295,16.5813954 C66.3892045,16.5395349 66.4497159,16.2883721 66.4900568,15.9534884 C66.5505682,15.472093 66.5505682,14.5930233 66.5505682,13.5046512 L66.5505682,8.71162791 L64.9369318,8.73255814 C64.2511364,8.75348837 63.9889205,8.81627907 63.8275568,9.08837209 C63.7065341,9.27674419 63.6661932,9.36046512 63.6460227,9.44418605 C63.6056818,9.52790698 63.5855114,9.54883721 63.5451705,9.54883721 C63.5048295,9.54883721 63.4846591,9.50697674 63.4846591,9.44418605 C63.4846591,9.33953488 63.7065341,8.35581395 63.7267045,8.27209302 C63.746875,8.20930233 63.7872159,8.0627907 63.8275568,8.0627907 C63.9082386,8.0627907 64.0090909,8.16744186 64.3116477,8.18837209 C64.634375,8.23023256 65.0377841,8.25116279 65.1789773,8.25116279 L69.2735795,8.25116279 C69.9795455,8.25116279 70.2619318,8.14651163 70.3627841,8.14651163 C70.4232955,8.14651163 70.4232955,8.20930233 70.4232955,8.29302326 C70.4232955,8.62790698 70.3829545,9.42325581 70.3829545,9.52790698 C70.3829545,9.63255814 70.3426136,9.6744186 70.3022727,9.6744186 C70.2417614,9.6744186 70.2215909,9.63255814 70.2215909,9.48604651 L70.2014205,9.36046512 C70.1610795,9.0255814 69.8988636,8.75348837 68.85,8.73255814 L67.4784091,8.71162791 L67.4784091,13.5046512 L67.4985795,13.5046512 Z M74.7196023,13.5046512 C74.7196023,14.5930233 74.7196023,15.4930233 74.7801136,15.9534884 C74.8204545,16.2883721 74.8809659,16.5395349 75.2036932,16.5813954 C75.3650568,16.6023256 75.5869318,16.6232558 75.6877841,16.6232558 C75.7482955,16.6232558 75.7684659,16.6651163 75.7684659,16.6860465 C75.7684659,16.7488372 75.7079545,16.7697674 75.5869318,16.7697674 C74.9818182,16.7697674 74.2960227,16.727907 74.2355114,16.727907 C74.175,16.727907 73.4892045,16.7697674 73.1664773,16.7697674 C73.0454545,16.7697674 72.9849432,16.7488372 72.9849432,16.6860465 C72.9849432,16.6441861 73.0051136,16.6232558 73.065625,16.6232558 C73.1664773,16.6232558 73.2875,16.6023256 73.3883523,16.5813954 C73.6102273,16.5395349 73.6707386,16.2883721 73.7110795,15.9534884 C73.7715909,15.472093 73.7715909,14.5930233 73.7715909,13.5046512 L73.7715909,11.5162791 C73.7715909,9.75813953 73.7715909,9.42325581 73.7514205,9.06744186 C73.73125,8.69069767 73.6303977,8.48139535 73.3883523,8.43953488 C73.2673295,8.39767442 73.1261364,8.39767442 73.0454545,8.39767442 C73.0051136,8.39767442 72.9647727,8.37674419 72.9647727,8.33488372 C72.9647727,8.27209302 73.0252841,8.25116279 73.1463068,8.25116279 C73.509375,8.25116279 74.1951705,8.29302326 74.2556818,8.29302326 C74.3161932,8.29302326 75.0019886,8.25116279 75.3247159,8.25116279 C75.4457386,8.25116279 75.50625,8.27209302 75.50625,8.33488372 C75.50625,8.37674419 75.4659091,8.39767442 75.4255682,8.39767442 C75.3448864,8.39767442 75.284375,8.41860465 75.1431818,8.43953488 C74.840625,8.50232558 74.7599432,8.69069767 74.7397727,9.08837209 C74.7196023,9.44418605 74.7196023,9.75813953 74.7196023,11.5372093 L74.7196023,13.5046512 Z M82.2835227,8.0627907 C84.7443182,8.0627907 86.5798295,9.6744186 86.5798295,12.3116279 C86.5798295,14.8441861 84.8653409,16.9372093 82.2230114,16.9372093 C79.2377841,16.9372093 77.9872159,14.5302326 77.9872159,12.4790698 C77.9872159,10.6581395 79.278125,8.0627907 82.2835227,8.0627907 Z M82.5053977,16.5186047 C83.49375,16.5186047 85.5107955,15.9325581 85.5107955,12.6255814 C85.5107955,9.90465116 83.9173295,8.43953488 82.2028409,8.43953488 C80.3875,8.43953488 79.0159091,9.69534884 79.0159091,12.1651163 C79.0159091,14.8232558 80.5488636,16.5186047 82.5053977,16.5186047 Z M90.371875,15.2418605 C90.3920455,16.1627907 90.4928977,16.455814 90.7954545,16.5604651 C90.9971591,16.6232558 91.2392045,16.6232558 91.3400568,16.6232558 C91.4005682,16.6232558 91.4207386,16.6441861 91.4207386,16.6860465 C91.4207386,16.7488372 91.3602273,16.7697674 91.2190341,16.7697674 C90.59375,16.7697674 90.1701705,16.727907 90.0693182,16.727907 C89.9684659,16.727907 89.5045455,16.7697674 89.0204545,16.7697674 C88.9196023,16.7697674 88.8389205,16.7488372 88.8389205,16.6860465 C88.8389205,16.6441861 88.8792614,16.6232558 88.9196023,16.6232558 C89.0002841,16.6232558 89.2019886,16.6023256 89.3633523,16.5604651 C89.6457386,16.4767442 89.6860795,16.1627907 89.6860795,15.1162791 L89.70625,8.62790698 C89.70625,8.18837209 89.7465909,8.0627907 89.8272727,8.0627907 C89.9079545,8.0627907 90.1096591,8.31395349 90.2105114,8.41860465 C90.371875,8.60697674 92.0056818,10.427907 93.6798295,12.3116279 C94.7690341,13.5046512 95.9590909,14.8860465 96.3019886,15.2627907 L96.1809659,9.50697674 C96.1607955,8.77441861 96.1002841,8.52325581 95.7573864,8.43953488 C95.5556818,8.39767442 95.3136364,8.37674419 95.2329545,8.37674419 C95.1522727,8.37674419 95.1522727,8.33488372 95.1522727,8.29302326 C95.1522727,8.23023256 95.2329545,8.20930233 95.3741477,8.20930233 C95.8582386,8.20930233 96.3826705,8.25116279 96.5036932,8.25116279 C96.6247159,8.25116279 96.9877841,8.20930233 97.4315341,8.20930233 C97.5525568,8.20930233 97.6332386,8.23023256 97.6332386,8.29302326 C97.6332386,8.33488372 97.5928977,8.37674419 97.5122159,8.37674419 C97.4517045,8.37674419 97.3710227,8.37674419 97.25,8.41860465 C96.8869318,8.50232558 96.8465909,8.75348837 96.8465909,9.42325581 L96.8264205,16.0581395 C96.8264205,16.8116279 96.80625,16.8534884 96.7255682,16.8534884 C96.6448864,16.8534884 96.5036932,16.727907 95.9389205,16.1209302 C95.8178977,16.0162791 94.2446023,14.3418605 93.0948864,13.0441861 C91.8241477,11.6209302 90.59375,10.1976744 90.2508523,9.8 L90.371875,15.2418605 Z M103.159943,8.50232558 C103.280966,8.1255814 103.341477,8.0627907 103.401989,8.0627907 C103.4625,8.0627907 103.502841,8.1255814 103.644034,8.46046512 C103.805398,8.9 105.519886,13.5674419 106.185511,15.2837209 C106.56875,16.2883721 106.891477,16.4767442 107.133523,16.5395349 C107.294886,16.6023256 107.45625,16.6023256 107.577273,16.6023256 C107.637784,16.6023256 107.678125,16.6232558 107.678125,16.6651163 C107.678125,16.727907 107.577273,16.7488372 107.45625,16.7488372 C107.294886,16.7488372 106.488068,16.7488372 105.741761,16.727907 C105.540057,16.7069767 105.419034,16.7069767 105.419034,16.6441861 C105.419034,16.6023256 105.459375,16.5813954 105.499716,16.5604651 C105.560227,16.5395349 105.620739,16.4348837 105.560227,16.2465116 L104.551704,13.4627907 C104.531534,13.4209302 104.511364,13.4 104.450852,13.4 L102.090909,13.4 C102.030398,13.4 102.010227,13.4418605 101.990057,13.4837209 L101.344602,15.4930233 C101.24375,15.7860465 101.183239,16.0581395 101.183239,16.2465116 C101.183239,16.4767442 101.405114,16.5813954 101.606818,16.5813954 L101.707671,16.5813954 C101.788352,16.5813954 101.808523,16.6023256 101.808523,16.6441861 C101.808523,16.7069767 101.748011,16.727907 101.647159,16.727907 C101.384943,16.727907 100.921023,16.6860465 100.8,16.6860465 C100.678977,16.6860465 100.073864,16.727907 99.5696023,16.727907 C99.4284091,16.727907 99.3678977,16.7069767 99.3678977,16.6441861 C99.3678977,16.6023256 99.4082386,16.5813954 99.46875,16.5813954 C99.5494318,16.5813954 99.690625,16.5604651 99.7914773,16.5604651 C100.295739,16.4976744 100.517614,16.0581395 100.699148,15.4930233 L103.159943,8.50232558 Z M104.289489,13.0441861 C104.35,13.0441861 104.35,13.0023256 104.329829,12.9604651 L103.301136,9.90465116 C103.240625,9.7372093 103.200284,9.7372093 103.139773,9.90465116 L102.171591,12.9604651 C102.151421,13.0232558 102.171591,13.0441861 102.211932,13.0441861 L104.289489,13.0441861 Z M111.611364,13.5255814 C111.611364,15.2 111.651704,15.9116279 111.853409,16.1209302 C112.034943,16.3093023 112.317329,16.372093 113.164489,16.372093 C113.749432,16.372093 114.213352,16.3511628 114.475568,16.0372093 C114.616761,15.8488372 114.717614,15.5767442 114.757954,15.3674419 C114.778125,15.2837209 114.798295,15.2209302 114.858807,15.2209302 C114.919318,15.2209302 114.919318,15.2627907 114.919318,15.3883721 C114.919318,15.5139535 114.838636,16.1837209 114.757954,16.5186047 C114.677273,16.7697674 114.657102,16.8325581 114.072159,16.8325581 C112.498864,16.8325581 111.772727,16.7697674 111.147443,16.7697674 C111.046591,16.7697674 110.401136,16.8116279 110.078409,16.8116279 C109.957386,16.8116279 109.896875,16.7906977 109.896875,16.727907 C109.896875,16.6860465 109.917046,16.6651163 109.977557,16.6651163 C110.078409,16.6651163 110.199432,16.644186 110.300284,16.6232558 C110.522159,16.5813953 110.58267,16.3302326 110.623011,15.9953488 C110.683523,15.5139535 110.683523,14.6348837 110.683523,13.5465116 L110.683523,11.5581395 C110.683523,9.8 110.683523,9.46511628 110.663352,9.10930233 C110.643182,8.73255814 110.5625,8.54418605 110.199432,8.46046512 C110.11875,8.43953488 109.917046,8.41860465 109.836364,8.41860465 C109.796023,8.41860465 109.755682,8.39767442 109.755682,8.35581395 C109.755682,8.29302326 109.816193,8.27209302 109.937216,8.27209302 C110.421307,8.27209302 111.107102,8.31395349 111.167614,8.31395349 C111.228125,8.31395349 112.014773,8.27209302 112.3375,8.27209302 C112.458523,8.27209302 112.519034,8.29302326 112.519034,8.35581395 C112.519034,8.39767442 112.478693,8.41860465 112.438352,8.41860465 C112.35767,8.41860465 112.216477,8.43953488 112.075284,8.46046512 C111.752557,8.52325581 111.671875,8.71162791 111.651704,9.10930233 C111.631534,9.46511628 111.631534,9.77906977 111.631534,11.5581395 L111.631534,13.5255814 L111.611364,13.5255814 Z" id="Shape"></path>
            <path d="M124.111364,8.44594595 C124.254545,8.06081081 124.295455,8 124.377273,8 C124.438636,8 124.5,8.06081081 124.643182,8.42567568 C124.827273,8.87162162 126.668182,13.6959459 127.384091,15.4594595 C127.813636,16.4932432 128.140909,16.6756757 128.406818,16.7567568 C128.590909,16.8175676 128.754545,16.8175676 128.877273,16.8175676 C128.938636,16.8175676 129,16.8378378 129,16.8783784 C129,16.9391892 128.897727,16.9797297 128.754545,16.9797297 C128.570455,16.9797297 127.711364,16.9797297 126.913636,16.9594595 C126.688636,16.9391892 126.565909,16.9391892 126.565909,16.8783784 C126.565909,16.8378378 126.606818,16.8175676 126.647727,16.7972973 C126.709091,16.777027 126.790909,16.6756757 126.709091,16.472973 L125.604545,13.5945946 C125.584091,13.5540541 125.563636,13.5337838 125.502273,13.5337838 L122.965909,13.5337838 C122.904545,13.5337838 122.863636,13.5743243 122.843182,13.6351351 L122.127273,15.7027027 C122.025,15.9864865 121.963636,16.2702703 121.963636,16.4932432 C121.963636,16.7364865 122.209091,16.8378378 122.413636,16.8378378 L122.536364,16.8378378 C122.618182,16.8378378 122.659091,16.8581081 122.659091,16.8986486 C122.659091,16.9594595 122.597727,17 122.475,17 C122.188636,17 121.677273,16.9594595 121.554545,16.9594595 C121.431818,16.9594595 120.777273,17 120.225,17 C120.061364,17 120,16.9797297 120,16.8986486 C120,16.8581081 120.040909,16.8378378 120.102273,16.8378378 C120.184091,16.8378378 120.347727,16.8175676 120.45,16.8175676 C121.002273,16.7567568 121.227273,16.3108108 121.431818,15.722973 L124.111364,8.44594595 Z M125.338636,13.1081081 C125.4,13.1081081 125.4,13.0675676 125.379545,13.027027 L124.254545,9.86486486 C124.193182,9.68243243 124.131818,9.68243243 124.070455,9.86486486 L123.027273,13.027027 C123.006818,13.0878378 123.027273,13.1081081 123.068182,13.1081081 L125.338636,13.1081081 Z M132.057604,11.4472477 C132.057604,9.58944954 132.057604,9.25917431 132.036866,8.88761468 C132.016129,8.47477064 131.912442,8.28899083 131.518433,8.20642202 C131.414747,8.18577982 131.228111,8.16513761 131.103687,8.16513761 C131.062212,8.16513761 131,8.14449541 131,8.10321101 C131,8.0412844 131.062212,8 131.186636,8 C131.725806,8 132.47235,8.0412844 132.534562,8.0412844 C132.658986,8.0412844 133.571429,8 133.9447,8 C134.691244,8 135.5,8.06192661 136.12212,8.51605505 C136.412442,8.72247706 136.951613,9.32110092 136.951613,10.1261468 C136.951613,11.0137615 136.578341,11.8807339 135.5,12.8715596 C136.474654,14.1307339 137.28341,15.1834862 137.988479,15.9266055 C138.631336,16.6077982 139.14977,16.7316514 139.440092,16.7729358 C139.668203,16.8142202 139.834101,16.8142202 139.896313,16.8142202 C139.958525,16.8142202 140,16.8555046 140,16.8761468 C140,16.9380734 139.937788,16.9793578 139.709677,16.9793578 L138.859447,16.9793578 C138.195853,16.9793578 137.884793,16.9174312 137.573733,16.7522936 C137.0553,16.483945 136.640553,15.9059633 135.956221,14.9977064 C135.458525,14.337156 134.898618,13.5527523 134.64977,13.2431193 C134.608295,13.2018349 134.56682,13.1811927 134.483871,13.1811927 L133.011521,13.1605505 C132.949309,13.1605505 132.928571,13.2018349 132.928571,13.2637615 L132.928571,13.5527523 C132.928571,14.6880734 132.928571,15.6376147 132.990783,16.1330275 C133.032258,16.483945 133.09447,16.7316514 133.447005,16.793578 C133.612903,16.8142202 133.882488,16.8348624 133.986175,16.8348624 C134.048387,16.8348624 134.089862,16.8761468 134.089862,16.896789 C134.089862,16.9587156 134.02765,17 133.903226,17 C133.239631,17 132.493088,16.9587156 132.430876,16.9587156 C132.410138,16.9587156 131.663594,17 131.31106,17 C131.186636,17 131.124424,16.9793578 131.124424,16.896789 C131.124424,16.8555046 131.145161,16.8348624 131.228111,16.8348624 C131.331797,16.8348624 131.476959,16.8142202 131.580645,16.793578 C131.829493,16.7522936 131.870968,16.483945 131.93318,16.1330275 C131.995392,15.6376147 131.995392,14.6880734 131.995392,13.5527523 L131.995392,11.4472477 L132.057604,11.4472477 Z M133.011521,12.5 C133.011521,12.5619266 133.032258,12.603211 133.09447,12.6444954 C133.281106,12.7477064 133.820276,12.8302752 134.359447,12.8302752 C134.64977,12.8302752 134.981567,12.7889908 135.251152,12.603211 C135.665899,12.3142202 135.976959,11.6743119 135.976959,10.766055 C135.976959,9.27981651 135.18894,8.39220183 133.903226,8.39220183 C133.550691,8.39220183 133.218894,8.43348624 133.09447,8.45412844 C133.032258,8.47477064 132.990783,8.51605505 132.990783,8.59862385 L132.990783,12.5 L133.011521,12.5 Z M141.428571,15.7821164 C140.285714,14.7844092 140,13.4674357 140,12.3699577 C140,11.5917461 140.265306,10.2548184 141.326531,9.23715697 C142.040816,8.53876191 143.102041,8 144.918367,8 C145.387755,8 146.040816,8.03990829 146.632653,8.13967901 C147.081633,8.21949559 147.44898,8.27935803 147.836735,8.31926632 C147.959184,8.33922046 148,8.37912875 148,8.43899118 C148,8.53876191 147.959184,8.67844092 147.938776,9.07752382 C147.918367,9.45665257 147.918367,10.0951852 147.897959,10.2548184 C147.877551,10.4344057 147.857143,10.4942681 147.795918,10.4942681 C147.714286,10.4942681 147.693878,10.4144515 147.693878,10.2548184 C147.693878,9.81582717 147.510204,9.3369277 147.204082,9.07752382 C146.795918,8.73830336 145.877551,8.41903704 144.857143,8.41903704 C143.285714,8.41903704 142.571429,8.85802822 142.142857,9.25711112 C141.285714,10.0552769 141.081633,11.0928924 141.081633,12.2502328 C141.081633,14.4451887 142.816327,16.4605574 145.326531,16.4605574 C146.204082,16.4605574 146.897959,16.3607866 147.367347,15.8818872 C147.612245,15.6224833 147.77551,15.1236297 147.795918,14.9240882 C147.816327,14.8043634 147.836735,14.7445009 147.918367,14.7445009 C147.979592,14.7445009 148,14.8243175 148,14.9240882 C148,15.0039048 147.857143,16.001612 147.734694,16.4006949 C147.673469,16.6201905 147.632653,16.6401447 147.428571,16.7399154 C146.959184,16.9195027 146.061224,16.9993193 145.306122,16.9993193 C143.55102,17.0192734 142.346939,16.6002364 141.428571,15.7821164 Z M158.889868,13.5448276 C158.889868,14.6827586 158.889868,15.6344828 158.949339,16.1310345 C158.988987,16.4827586 159.048458,16.7310345 159.385463,16.7931034 C159.544053,16.8137931 159.801762,16.8344828 159.900881,16.8344828 C159.960352,16.8344828 160,16.8758621 160,16.8965517 C160,16.9586207 159.940529,17 159.821586,17 C159.187225,17 158.473568,16.9586207 158.414097,16.9586207 C158.354626,16.9586207 157.640969,17 157.303965,17 C157.185022,17 157.125551,16.9793103 157.125551,16.8965517 C157.125551,16.8551724 157.145374,16.8344828 157.22467,16.8344828 C157.323789,16.8344828 157.462555,16.8137931 157.561674,16.7931034 C157.799559,16.7517241 157.839207,16.4827586 157.898678,16.1310345 C157.95815,15.6344828 157.95815,14.6827586 157.95815,13.5448276 L157.95815,12.2827586 C157.95815,12.2413793 157.918502,12.2206897 157.898678,12.2206897 L153.002203,12.2206897 C152.962555,12.2206897 152.942731,12.2413793 152.942731,12.2827586 L152.942731,13.5448276 C152.942731,14.6827586 152.942731,15.6344828 153.002203,16.1310345 C153.04185,16.4827586 153.101322,16.7310345 153.438326,16.7931034 C153.596916,16.8137931 153.854626,16.8344828 153.953744,16.8344828 C154.013216,16.8344828 154.052863,16.8758621 154.052863,16.8965517 C154.052863,16.9586207 153.993392,17 153.874449,17 C153.240088,17 152.526432,16.9586207 152.46696,16.9586207 C152.407489,16.9586207 151.693833,17 151.356828,17 C151.237885,17 151.178414,16.9793103 151.178414,16.8965517 C151.178414,16.8551724 151.198238,16.8344828 151.277533,16.8344828 C151.376652,16.8344828 151.515419,16.8137931 151.614537,16.7931034 C151.852423,16.7517241 151.89207,16.4827586 151.951542,16.1310345 C152.011013,15.6344828 152.011013,14.6827586 152.011013,13.5448276 L152.011013,11.4551724 C152.011013,9.59310345 152.011013,9.26206897 151.991189,8.88965517 C151.971366,8.47586207 151.872247,8.28965517 151.495595,8.20689655 C151.396476,8.1862069 151.218062,8.16551724 151.099119,8.16551724 C151.059471,8.16551724 151,8.14482759 151,8.10344828 C151,8.04137931 151.059471,8 151.178414,8 C151.693833,8 152.407489,8.04137931 152.46696,8.04137931 C152.526432,8.04137931 153.240088,8 153.577093,8 C153.696035,8 153.755507,8.02068966 153.755507,8.10344828 C153.755507,8.14482759 153.715859,8.16551724 153.656388,8.16551724 C153.577093,8.16551724 153.517621,8.1862069 153.378855,8.20689655 C153.061674,8.26896552 152.982379,8.47586207 152.962555,8.88965517 C152.942731,9.26206897 152.942731,9.6137931 152.942731,11.4551724 L152.942731,11.7034483 C152.942731,11.7655172 152.982379,11.7655172 153.002203,11.7655172 L157.839207,11.7655172 C157.878855,11.7655172 157.898678,11.7448276 157.898678,11.7034483 L157.898678,11.4551724 C157.898678,9.59310345 157.898678,9.26206897 157.878855,8.88965517 C157.859031,8.47586207 157.759912,8.28965517 157.38326,8.20689655 C157.284141,8.1862069 157.105727,8.16551724 156.986784,8.16551724 C156.947137,8.16551724 156.887665,8.14482759 156.887665,8.10344828 C156.887665,8.04137931 156.947137,8 157.066079,8 C157.581498,8 158.295154,8.04137931 158.354626,8.04137931 C158.414097,8.04137931 159.127753,8 159.464758,8 C159.5837,8 159.643172,8.02068966 159.643172,8.10344828 C159.643172,8.14482759 159.603524,8.16551724 159.544053,8.16551724 C159.464758,8.16551724 159.385463,8.1862069 159.26652,8.20689655 C158.949339,8.26896552 158.870044,8.47586207 158.85022,8.88965517 C158.830396,9.26206897 158.830396,9.6137931 158.830396,11.4551724 L158.830396,13.5448276 L158.889868,13.5448276 Z M163.857143,13.5368664 C163.857143,14.6774194 163.857143,15.6313364 163.918367,16.1290323 C163.959184,16.4815668 164.020408,16.7304147 164.367347,16.7926267 C164.530612,16.8133641 164.795918,16.8341014 164.897959,16.8341014 C164.959184,16.8341014 165,16.875576 165,16.8963134 C165,16.9585253 164.938776,17 164.816327,17 C164.163265,17 163.428571,16.9585253 163.367347,16.9585253 C163.306122,16.9585253 162.571429,17 162.22449,17 C162.102041,17 162.040816,16.9792627 162.040816,16.8963134 C162.040816,16.8548387 162.061224,16.8341014 162.142857,16.8341014 C162.244898,16.8341014 162.387755,16.8133641 162.489796,16.7926267 C162.734694,16.7511521 162.77551,16.4815668 162.836735,16.1290323 C162.897959,15.6313364 162.897959,14.6774194 162.897959,13.5368664 L162.897959,11.4423963 C162.897959,9.57603687 162.897959,9.24423963 162.877551,8.87096774 C162.857143,8.4562212 162.734694,8.26958525 162.469388,8.20737327 C162.346939,8.16589862 162.183673,8.16589862 162.102041,8.16589862 C162.061224,8.16589862 162,8.14516129 162,8.10368664 C162,8.04147465 162.061224,8 162.183673,8 C162.571429,8 163.306122,8.04147465 163.367347,8.04147465 C163.428571,8.04147465 164.163265,8 164.510204,8 C164.632653,8 164.693878,8.02073733 164.693878,8.10368664 C164.693878,8.14516129 164.653061,8.16589862 164.591837,8.16589862 C164.510204,8.16589862 164.428571,8.18663594 164.306122,8.20737327 C163.979592,8.26958525 163.897959,8.47695853 163.877551,8.89170507 C163.857143,9.26497696 163.857143,9.61751152 163.857143,11.4631336 L163.857143,13.5368664 Z M171.754348,15.3986486 C172.4,13.8378378 173.926087,9.76351351 174.16087,8.91216216 C174.219565,8.72972973 174.258696,8.56756757 174.258696,8.46621622 C174.258696,8.36486486 174.219565,8.26351351 174.121739,8.2027027 C173.984783,8.16216216 173.808696,8.16216216 173.691304,8.16216216 C173.632609,8.16216216 173.573913,8.14189189 173.573913,8.10135135 C173.573913,8.04054054 173.632609,8 173.828261,8 C174.278261,8 174.806522,8.04054054 174.923913,8.04054054 C174.982609,8.04054054 175.471739,8 175.804348,8 C175.921739,8 176,8.02027027 176,8.08108108 C176,8.14189189 175.96087,8.16216216 175.863043,8.16216216 C175.784783,8.16216216 175.530435,8.16216216 175.315217,8.30405405 C175.178261,8.40540541 175.002174,8.60810811 174.68913,9.39864865 C174.571739,9.72297297 174.004348,11.1216216 173.417391,12.5608108 C172.732609,14.2635135 172.223913,15.5202703 171.969565,16.1081081 C171.656522,16.8175676 171.617391,17 171.5,17 C171.363043,17 171.304348,16.8378378 171.08913,16.2702703 L168.330435,9.11486486 C168.076087,8.46621622 167.919565,8.32432432 167.528261,8.22297297 C167.352174,8.18243243 167.176087,8.18243243 167.097826,8.18243243 C167.03913,8.18243243 167,8.14189189 167,8.10135135 C167,8.04054054 167.117391,8.02027027 167.293478,8.02027027 C167.841304,8.02027027 168.467391,8.06081081 168.604348,8.06081081 C168.721739,8.06081081 169.230435,8.02027027 169.66087,8.02027027 C169.856522,8.02027027 169.973913,8.04054054 169.973913,8.10135135 C169.973913,8.16216216 169.934783,8.18243243 169.856522,8.18243243 C169.73913,8.18243243 169.523913,8.2027027 169.426087,8.24324324 C169.308696,8.30405405 169.28913,8.38513514 169.28913,8.48648649 C169.28913,8.64864865 169.426087,8.99324324 169.602174,9.45945946 L171.754348,15.3986486 Z M180,11.4943567 C180,9.66591422 180,9.34085779 179.980392,8.9751693 C179.960784,8.56884876 179.862745,8.38600451 179.490196,8.30474041 C179.392157,8.28442438 179.215686,8.26410835 179.098039,8.26410835 C179.058824,8.26410835 179,8.24379233 179,8.20316027 C179,8.14221219 179.058824,8.10158014 179.176471,8.10158014 C179.686275,8.10158014 180.392157,8.14221219 180.45098,8.14221219 C180.529412,8.14221219 182.784314,8.14221219 183.039216,8.12189616 C183.254902,8.10158014 183.431373,8.08126411 183.529412,8.06094808 C183.588235,8.04063205 183.627451,8 183.686275,8 C183.72549,8 183.72549,8.04063205 183.72549,8.10158014 C183.72549,8.18284424 183.666667,8.32505643 183.627451,8.65011287 C183.607843,8.77200903 183.588235,9.27990971 183.568627,9.4221219 C183.54902,9.48306998 183.529412,9.54401806 183.490196,9.54401806 C183.431373,9.54401806 183.392157,9.48306998 183.392157,9.38148984 C183.392157,9.30022573 183.372549,9.09706546 183.333333,8.95485327 C183.254902,8.77200903 183.137255,8.62979684 182.529412,8.54853273 C182.333333,8.5282167 181.098039,8.50790068 180.980392,8.50790068 C180.941176,8.50790068 180.921569,8.54853273 180.921569,8.62979684 L180.921569,11.8600451 C180.921569,11.9413093 180.941176,11.9819413 180.980392,11.9819413 C181.117647,11.9819413 182.509804,11.9819413 182.784314,11.9616253 C183.058824,11.9413093 183.215686,11.9209932 183.313725,11.7990971 C183.392157,11.6975169 183.431373,11.6568849 183.490196,11.6568849 C183.529412,11.6568849 183.54902,11.6772009 183.54902,11.758465 C183.54902,11.8194131 183.490196,12.0225734 183.45098,12.4085779 C183.431373,12.6523702 183.411765,13.0790068 183.411765,13.1602709 C183.411765,13.261851 183.411765,13.3837472 183.333333,13.3837472 C183.27451,13.3837472 183.254902,13.3431151 183.254902,13.282167 C183.254902,13.1602709 183.254902,13.0383747 183.215686,12.8961625 C183.176471,12.7336343 183.078431,12.530474 182.627451,12.489842 C182.313725,12.4492099 181.196078,12.4288939 181.019608,12.4288939 C180.960784,12.4288939 180.941176,12.469526 180.941176,12.510158 L180.941176,13.5462754 C180.941176,13.9525959 180.921569,15.2934537 180.941176,15.5575621 C180.980392,16.3702032 181.137255,16.5124153 182.254902,16.5124153 C182.54902,16.5124153 183.039216,16.5124153 183.333333,16.3905192 C183.627451,16.268623 183.764706,16.0248307 183.843137,15.5575621 C183.862745,15.4356659 183.882353,15.3747178 183.941176,15.3747178 C184,15.3747178 184,15.476298 184,15.5575621 C184,15.6591422 183.901961,16.4514673 183.843137,16.6952596 C183.764706,17 183.666667,17 183.235294,17 C181.529412,17 180.764706,16.9390519 180.45098,16.9390519 C180.392157,16.9390519 179.686275,16.979684 179.352941,16.979684 C179.235294,16.979684 179.176471,16.9593679 179.176471,16.8781038 C179.176471,16.8374718 179.196078,16.8171558 179.27451,16.8171558 C179.372549,16.8171558 179.509804,16.7968397 179.607843,16.7765237 C179.843137,16.7358916 179.882353,16.4717833 179.941176,16.1264108 C180,15.6388262 180,14.7042889 180,13.5869074 L180,11.4943567 Z M186.202703,16.7013274 C186.022523,16.6216814 186,16.5818584 186,16.2632743 C186,15.6858407 186.045045,15.2278761 186.067568,15.0486726 C186.09009,14.9292035 186.112613,14.869469 186.18018,14.869469 C186.247748,14.869469 186.27027,14.909292 186.27027,14.9889381 C186.27027,15.0884956 186.27027,15.2477876 186.315315,15.4070796 C186.518018,16.2632743 187.373874,16.5818584 188.22973,16.5818584 C189.468468,16.5818584 190.076577,15.7853982 190.076577,15.0486726 C190.076577,14.2522124 189.693694,13.7942478 188.59009,12.9778761 L188.004505,12.5597345 C186.630631,11.5641593 186.315315,10.8473451 186.315315,10.0707965 C186.315315,8.83628319 187.351351,8 188.995495,8 C189.490991,8 189.873874,8.03982301 190.211712,8.11946903 C190.459459,8.15929204 190.572072,8.17920354 190.662162,8.17920354 C190.774775,8.17920354 190.797297,8.19911504 190.797297,8.25884956 C190.797297,8.31858407 190.752252,8.69690265 190.752252,9.47345133 C190.752252,9.65265487 190.72973,9.73230088 190.662162,9.73230088 C190.594595,9.73230088 190.572072,9.67256637 190.54955,9.59292035 C190.527027,9.45353982 190.459459,9.15486726 190.391892,9.01548673 C190.324324,8.8960177 189.963964,8.39823009 188.77027,8.39823009 C187.869369,8.39823009 187.171171,8.8960177 187.171171,9.73230088 C187.171171,10.3893805 187.531532,10.7676991 188.747748,11.6637168 L189.108108,11.9225664 C190.63964,12.9977876 191,13.6946903 191,14.6106195 C191,15.0884956 190.797297,15.9446903 189.896396,16.5221239 C189.333333,16.8606195 188.635135,17 187.936937,17 C187.328829,17 186.720721,16.920354 186.202703,16.7013274 Z" id="Shape"></path>
        </g>
    </g>
</svg>